<?xml version="1.0" encoding="UTF-8" standalone="no"?>
<!-- Created with Inkscape (http://www.inkscape.org/) -->
<svg
   xmlns:dc="http://purl.org/dc/elements/1.1/"
   xmlns:cc="http://creativecommons.org/ns#"
   xmlns:rdf="http://www.w3.org/1999/02/22-rdf-syntax-ns#"
   xmlns:svg="http://www.w3.org/2000/svg"
   xmlns="http://www.w3.org/2000/svg"
   xmlns:xlink="http://www.w3.org/1999/xlink"
   xmlns:sodipodi="http://sodipodi.sourceforge.net/DTD/sodipodi-0.dtd"
   xmlns:inkscape="http://www.inkscape.org/namespaces/inkscape"
   width="64px"
   height="64px"
   id="svg2383"
   sodipodi:version="0.32"
   inkscape:version="0.46"
   sodipodi:docname="logo.svg"
   inkscape:output_extension="org.inkscape.output.svg.inkscape"
   inkscape:export-filename="/home/eav/projects/jbookshelf/repo/doc/art/logo-16.png"
   inkscape:export-xdpi="22.5"
   inkscape:export-ydpi="22.5">
  <defs
     id="defs2385">
    <linearGradient
       inkscape:collect="always"
       id="linearGradient5119">
      <stop
         style="stop-color:#999999;stop-opacity:1;"
         offset="0"
         id="stop5121" />
      <stop
         style="stop-color:#999999;stop-opacity:0;"
         offset="1"
         id="stop5123" />
    </linearGradient>
    <linearGradient
       id="linearGradient4861">
      <stop
         style="stop-color:#ff0000;stop-opacity:1;"
         offset="0"
         id="stop4863" />
      <stop
         style="stop-color:#fffe00;stop-opacity:0.79901963;"
         offset="1"
         id="stop4865" />
    </linearGradient>
    <linearGradient
       id="linearGradient4827">
      <stop
         style="stop-color:#e1dcdc;stop-opacity:1;"
         offset="0"
         id="stop4829" />
      <stop
         style="stop-color:#00ffff;stop-opacity:0;"
         offset="1"
         id="stop4831" />
    </linearGradient>
    <linearGradient
       id="linearGradient4799">
      <stop
         style="stop-color:#000000;stop-opacity:1;"
         offset="0"
         id="stop4801" />
      <stop
         id="stop4807"
         offset="0.5"
         style="stop-color:#000000;stop-opacity:0.49803922;" />
      <stop
         style="stop-color:#000000;stop-opacity:0.24705882;"
         offset="0.75"
         id="stop4809" />
      <stop
         style="stop-color:#000000;stop-opacity:0;"
         offset="1"
         id="stop4803" />
    </linearGradient>
    <linearGradient
       inkscape:collect="always"
       id="linearGradient4781">
      <stop
         style="stop-color:#00ffff;stop-opacity:1;"
         offset="0"
         id="stop4783" />
      <stop
         style="stop-color:#00ffff;stop-opacity:0;"
         offset="1"
         id="stop4785" />
    </linearGradient>
    <linearGradient
       id="linearGradient3307">
      <stop
         style="stop-color:#00ffff;stop-opacity:1;"
         offset="0"
         id="stop3309" />
      <stop
         style="stop-color:#00ffff;stop-opacity:0;"
         offset="1"
         id="stop3311" />
    </linearGradient>
    <inkscape:perspective
       sodipodi:type="inkscape:persp3d"
       inkscape:vp_x="0 : 32 : 1"
       inkscape:vp_y="0 : 1000 : 0"
       inkscape:vp_z="64 : 32 : 1"
       inkscape:persp3d-origin="32 : 21.333333 : 1"
       id="perspective2391" />
    <linearGradient
       inkscape:collect="always"
       xlink:href="#linearGradient4781"
       id="linearGradient4787"
       x1="-0.5"
       y1="32"
       x2="64.590912"
       y2="32"
       gradientUnits="userSpaceOnUse" />
    <linearGradient
       inkscape:collect="always"
       xlink:href="#linearGradient4799"
       id="linearGradient4805"
       x1="-0.5"
       y1="32"
       x2="64.590912"
       y2="32"
       gradientUnits="userSpaceOnUse" />
    <linearGradient
       inkscape:collect="always"
       xlink:href="#linearGradient5119"
       id="linearGradient5125"
       x1="-0.045454532"
       y1="32.181822"
       x2="64.318193"
       y2="32.181822"
       gradientUnits="userSpaceOnUse" />
  </defs>
  <sodipodi:namedview
     id="base"
     pagecolor="#ffffff"
     bordercolor="#666666"
     borderopacity="1.0"
     inkscape:pageopacity="0.0"
     inkscape:pageshadow="2"
     inkscape:zoom="0.6875"
     inkscape:cx="-110.7391"
     inkscape:cy="-117.6408"
     inkscape:current-layer="layer1"
     showgrid="true"
     inkscape:document-units="px"
     inkscape:grid-bbox="true"
     inkscape:window-width="1920"
     inkscape:window-height="1148"
     inkscape:window-x="0"
     inkscape:window-y="0" />
  <metadata
     id="metadata2388">
    <rdf:RDF>
      <cc:Work
         rdf:about="">
        <dc:format>image/svg+xml</dc:format>
        <dc:type
           rdf:resource="http://purl.org/dc/dcmitype/StillImage" />
      </cc:Work>
    </rdf:RDF>
  </metadata>
  <g
     id="layer1"
     inkscape:label="Layer 1"
     inkscape:groupmode="layer">
    <rect
       style="fill:url(#linearGradient5125);fill-rule:nonzero;stroke:#000000;stroke-opacity:1;fill-opacity:1"
       id="rect4817"
       width="63.363647"
       height="63.272736"
       x="0.45454547"
       y="0.5454545"
       rx="4.272727"
       ry="4.818182" />
    <path
       style="fill:#000000;fill-opacity:1;fill-rule:nonzero;stroke:#000000;stroke-opacity:1"
       id="path4969"
       d="M 10.081328,49.528691 C 9.9753117,49.614115 9.8689037,49.700759 9.7620731,49.786929 C 9.603584,49.9244 9.4758423,50.091853 9.3510708,50.259282 C 9.195947,50.456925 9.0769984,50.677417 8.9712682,50.904294 C 8.863995,51.139768 8.8182241,51.392434 8.8026251,51.64884 C 8.7900275,51.910596 8.8401324,52.166875 8.9103534,52.417439 C 8.9901227,52.675935 9.1070295,52.919331 9.2428436,53.15249 C 9.3872767,53.414808 9.5832799,53.640093 9.779432,53.864011 C 10.073752,54.152201 10.400143,54.405225 10.730596,54.650248 C 11.073143,54.897641 11.43157,55.121468 11.80073,55.326637 C 12.145214,55.518048 12.503087,55.679599 12.872193,55.816605 C 13.215636,55.947659 13.577161,56.016093 13.938325,56.076388 C 14.324291,56.093113 14.710261,56.103277 15.096398,56.089301 C 15.559016,56.087361 16.01309,55.998477 16.462634,55.898273 C 16.95987,55.788405 17.448708,55.647101 17.928083,55.475872 C 18.427845,55.298218 18.902017,55.06163 19.369263,54.812492 C 20.696472,54.056735 20.935177,53.920352 16.07047,56.712025 C 15.989874,56.758276 16.230757,56.617931 16.309868,56.569182 C 16.555496,56.417826 16.791541,56.253933 17.02634,56.086512 C 17.485496,55.752133 17.921247,55.387734 18.35306,55.019228 C 18.844913,54.60655 19.277258,54.130918 19.701243,53.650637 C 20.138663,53.161387 20.530504,52.636148 20.891547,52.088865 C 21.259293,51.488832 21.601988,50.873807 21.95187,50.263258 C 22.328846,49.6124 22.635198,48.924523 22.909151,48.225074 C 23.177588,47.521994 23.402798,46.80399 23.627723,46.086223 C 23.896026,45.288551 24.09893,44.471881 24.299667,43.65532 C 24.501436,42.880414 24.679206,42.09965 24.851745,41.317819 C 24.997989,40.621468 25.119929,39.920352 25.226133,39.216874 C 25.320124,38.591094 25.396355,37.963117 25.461853,37.333789 C 25.519815,36.766187 25.56796,36.197657 25.61277,35.628886 C 25.650338,35.112952 25.688918,34.597025 25.720739,34.080705 C 25.749508,33.572002 25.770055,33.062883 25.7895,32.553753 C 25.807018,32.089688 25.821192,31.625508 25.834217,31.161298 C 25.85584,30.680088 25.862847,30.198362 25.870983,29.716777 C 25.878393,29.264786 25.88415,28.812771 25.889463,28.360751 C 25.899189,27.895868 25.905232,27.430962 25.908468,26.965972 C 25.915766,26.475235 25.920018,25.984493 25.921526,25.493687 C 25.924159,25.020655 25.919584,24.547578 25.927671,24.074598 C 25.932359,23.588432 25.931296,23.102231 25.931019,22.616048 C 25.925057,22.162094 25.934994,21.708474 25.952733,21.254914 C 25.961323,20.804421 26.000842,20.356101 26.041165,19.907642 C 26.081158,19.441492 26.12268,18.975395 26.156334,18.508742 C 26.187854,18.032632 26.210196,17.55598 26.231275,17.079314 C 26.250582,16.637164 26.266013,16.19486 26.280164,15.752519 C 26.293334,15.335906 26.30373,14.919213 26.313231,14.502502 C 26.322218,14.103151 26.32922,13.70376 26.335609,13.30436 C 26.341723,12.916641 26.346441,12.528903 26.350741,12.141161 C 26.354892,11.761283 26.358072,11.381396 26.360968,11.001507 C 26.361223,10.625169 26.374536,10.249035 26.385693,9.8729114 L 30.352168,7.8666898 C 30.341083,8.2401586 30.325485,8.613593 30.322019,8.9872148 C 30.318872,9.3678583 30.315415,9.7484997 30.310896,10.12913 C 30.30621,10.517961 30.301066,10.906787 30.294385,11.295589 C 30.287396,11.696542 30.27973,12.097485 30.269864,12.49838 C 30.259415,12.917273 30.247971,13.336145 30.233422,13.75492 C 30.217764,14.20026 30.200643,14.645553 30.179293,15.090661 C 30.15606,15.570759 30.130482,16.050736 30.101684,16.530535 C 30.074696,16.999904 30.043574,17.468817 29.996399,17.936709 C 29.956944,18.377838 29.919755,18.819168 29.90627,19.262027 C 29.884847,19.711565 29.862276,20.161076 29.868146,20.611333 C 29.865222,21.098131 29.861309,21.584936 29.862325,22.071746 C 29.866765,22.545301 29.857515,23.018844 29.854882,23.492397 C 29.850742,23.982678 29.849155,24.472948 29.847801,24.963219 C 29.842725,25.427628 29.840205,25.892041 29.836958,26.356436 C 29.829442,26.810569 29.821208,27.264692 29.811198,27.718778 C 29.800603,28.200721 29.78772,28.682639 29.782398,29.164677 C 29.767129,29.632005 29.750466,30.09929 29.729937,30.566421 C 29.70723,31.079132 29.682306,31.591738 29.654672,32.104209 C 29.62781,32.624649 29.597199,33.144745 29.549175,33.66378 C 29.499728,34.238986 29.446253,34.813853 29.383619,35.387792 C 29.314001,36.024455 29.247928,36.661891 29.146197,37.294422 C 29.033799,38.009543 28.90357,38.721517 28.756522,39.430375 C 28.593905,40.2221 28.390522,41.004454 28.196668,41.788966 C 27.98757,42.605006 27.795301,43.425997 27.551631,44.232617 C 27.330549,44.960845 27.11161,45.689584 26.838193,46.40051 C 26.572975,47.112321 26.291918,47.818677 25.932701,48.489518 C 25.580478,49.103091 25.227875,49.716427 24.876431,50.330436 C 24.540246,50.903868 24.164586,51.45224 23.724314,51.951818 C 23.306604,52.437278 22.889192,52.926026 22.422748,53.365849 C 21.994926,53.747327 21.557803,54.118307 21.103671,54.468265 C 19.507279,55.691392 17.717475,56.63955 15.934831,57.564048 C 15.451886,57.799028 14.961562,58.019232 14.447813,58.179336 C 13.955945,58.331475 13.457165,58.459845 12.951482,58.557725 C 12.475356,58.644187 11.994356,58.709134 11.509224,58.702948 C 11.103224,58.699496 10.693594,58.694814 10.293097,58.621956 C 9.9145704,58.542054 9.5407473,58.440833 9.1837953,58.289292 C 8.8056036,58.13017 8.4377816,57.947893 8.0830143,57.741436 C 7.7071861,57.517452 7.3395465,57.279573 6.9902716,57.015639 C 6.6390086,56.748569 6.2883647,56.47757 5.9713686,56.169865 C 5.7485895,55.928002 5.5364744,55.674653 5.3738074,55.38738 C 5.2214044,55.123802 5.0869424,54.851324 4.9897069,54.562062 C 4.8972258,54.273275 4.8256281,53.977237 4.8168909,53.672543 C 4.8092394,53.373656 4.8276703,53.075212 4.913823,52.786824 C 4.9957865,52.529167 5.1024923,52.279454 5.2427074,52.047662 C 5.3594716,51.866885 5.4780448,51.68708 5.6075498,51.515075 C 5.686938,51.412096 5.7784063,51.308221 5.8810175,51.230857 L 10.081328,49.528691 z" />
    <path
       style="fill:#000000;fill-opacity:1;fill-rule:nonzero;stroke:none;stroke-opacity:1"
       id="path4971"
       d="M 31.466545,7.4650051 C 31.44145,7.6860229 31.442793,7.9085163 31.440474,8.1304155 C 31.434874,8.4223893 31.44637,8.7142767 31.455187,9.0060986 C 31.469321,9.3485316 31.467655,9.6911352 31.472361,10.033713 C 31.467411,10.5351 31.464746,11.03647 31.468812,11.53787 C 31.468242,12.122546 31.471621,12.707213 31.473734,13.291884 C 31.473731,13.901045 31.476802,14.510178 31.482482,15.119329 C 31.491436,15.684103 31.490874,16.248866 31.491148,16.813664 C 31.493263,17.357209 31.497854,17.900744 31.501731,18.444282 C 31.504087,18.989176 31.498356,19.534076 31.497145,20.078974 C 31.499073,20.658889 31.495274,21.238753 31.498056,21.818674 C 31.495221,22.406244 31.501474,22.99389 31.496123,23.581454 C 31.497131,24.19375 31.498051,24.806011 31.491447,25.418285 C 31.487021,26.110883 31.486006,26.803503 31.480121,27.496096 C 31.476708,28.22959 31.48761,28.963216 31.474835,29.696632 C 31.454126,30.466894 31.428408,31.236928 31.414275,32.007343 C 31.39382,32.737438 31.369583,33.467443 31.351078,34.197606 C 31.342949,34.86253 31.303072,35.526556 31.269722,36.190722 C 31.228552,36.833265 31.205233,37.476593 31.181752,38.119808 C 31.161496,38.682398 31.1446,39.245078 31.128914,39.807782 C 31.115113,40.306809 31.10372,40.805884 31.093228,41.304974 C 31.091782,41.787296 31.067355,42.268774 31.040552,42.750366 C 31.019505,43.231014 30.984333,43.710806 30.942418,44.1903 C 30.906882,44.650759 30.855001,45.10977 30.797008,45.568304 C 30.744019,46.038475 30.681195,46.507414 30.602055,46.974624 C 30.531553,47.40728 30.439904,47.83633 30.338546,48.263897 C 30.245814,48.676768 30.130381,49.085027 30.028571,49.496032 C 29.923184,49.942451 29.8073,50.386774 29.667146,50.825476 C 29.521713,51.265882 29.344902,51.696693 29.158966,52.124389 C 28.986327,52.51903 28.790116,52.904869 28.591271,53.289311 C 28.398325,53.651854 28.19172,54.008366 27.976369,54.360572 C 27.743863,54.729792 27.494303,55.090121 27.240249,55.447657 C 26.990633,55.808926 26.708604,56.149764 26.421222,56.487205 C 26.127505,56.840906 25.809599,57.177788 25.487414,57.510744 C 25.231757,57.783794 24.963792,58.047174 24.686885,58.302931 L 20.081284,60.016379 C 20.359957,59.766876 20.639228,59.517544 20.897835,59.250965 C 21.213349,58.919511 21.541437,58.597329 21.840376,58.253325 C 22.122268,57.919853 22.422531,57.597521 22.67022,57.242075 C 22.932227,56.898945 23.175714,56.545309 23.414021,56.188628 C 23.632759,55.842862 23.848513,55.495593 24.044708,55.138972 C 24.256385,54.764903 24.446261,54.381804 24.638264,53.999401 C 24.827467,53.581275 25.01843,53.163134 25.166383,52.731413 C 25.322694,52.308398 25.437611,51.874292 25.543149,51.439039 C 25.637535,51.026793 25.741426,50.617304 25.845458,50.206887 C 25.953067,49.785681 26.05861,49.363884 26.129841,48.936259 C 26.219228,48.475631 26.295583,48.012976 26.343675,47.547279 C 26.397841,47.09286 26.446335,46.637842 26.490351,46.182554 C 26.535963,45.705845 26.584984,45.229358 26.604418,44.751018 C 26.631848,44.27397 26.650612,43.796792 26.658678,43.319137 C 26.672935,42.816845 26.688448,42.314581 26.707324,41.812409 C 26.728806,41.245352 26.752079,40.678348 26.779414,40.11149 C 26.81059,39.465472 26.845375,38.819594 26.87395,38.173478 C 26.914754,37.510205 26.953634,36.846867 26.97293,36.182743 C 27.001809,35.450939 27.029349,34.719106 27.055539,33.98723 C 27.078834,33.218909 27.094331,32.45052 27.111718,31.682089 C 27.122696,30.950874 27.116685,30.219666 27.117854,29.48841 C 27.111682,28.799441 27.11039,28.110444 27.10551,27.421468 C 27.098453,26.81088 27.09898,26.200298 27.099328,25.589682 C 27.093324,25.003092 27.098949,24.416411 27.095163,23.829812 C 27.097003,23.250174 27.092249,22.670604 27.092764,22.090972 C 27.090246,21.548328 27.083046,21.005697 27.083272,20.463051 C 27.085006,19.917498 27.08729,19.371945 27.086586,18.826389 C 27.083858,18.260775 27.079821,17.695192 27.084477,17.129558 C 27.085544,16.520415 27.083904,15.911314 27.077257,15.302206 C 27.072896,14.720157 27.068953,14.138062 27.058513,13.556074 C 27.053582,13.062499 27.0423,12.569002 27.019902,12.075795 C 27.011541,11.737877 26.995332,11.40023 26.985818,11.062334 C 26.975078,10.767882 26.95911,10.473485 26.954988,10.178916 C 26.952731,9.9649719 26.954867,9.7502866 26.928917,9.5373197 L 31.466545,7.4650051 z" />
    <path
       style="fill:#000000;fill-opacity:1;fill-rule:nonzero;stroke:none;stroke-opacity:1"
       id="path4973"
       d="M 34.110764,7.2650771 C 34.078965,7.4942975 34.073745,7.7250307 34.058468,7.955158 C 34.029617,8.479529 33.977468,9.0028721 33.926605,9.5260859 C 33.84956,10.342574 33.814252,11.161016 33.786581,11.979407 C 33.76103,12.818514 33.730411,13.657509 33.7009,14.496534 C 33.677378,15.380462 33.661782,16.264511 33.650184,17.14859 C 33.630594,18.045926 33.580109,18.942429 33.52396,19.838666 C 33.467562,20.7669 33.42213,21.695621 33.378949,22.624327 C 33.333971,23.531286 33.293943,24.43838 33.253258,25.34547 C 33.217353,26.266744 33.18218,27.187997 33.159997,28.109566 C 33.146855,28.984873 33.094794,29.859447 33.049472,30.733955 C 33.001483,31.533898 32.959755,32.334123 32.927474,33.134587 C 32.900653,33.835866 32.879289,34.537271 32.859005,35.23869 C 32.843128,35.83057 32.825061,36.42243 32.816077,37.01441 C 32.809285,37.530447 32.825953,38.046419 32.839383,38.562298 C 32.851872,39.029858 32.862689,39.497444 32.872537,39.965045 C 32.881578,40.39849 32.88881,40.831959 32.895428,41.265432 C 32.902756,41.708275 32.899098,42.15112 32.902878,42.593997 C 32.907057,43.037618 32.914061,43.481206 32.909399,43.924837 C 32.90817,44.345325 32.882792,44.76527 32.853157,45.184951 C 32.822983,45.58775 32.782373,45.989967 32.734656,46.391635 C 32.684994,46.779568 32.633331,47.167314 32.579448,47.554876 C 32.526312,47.931338 32.483315,48.308644 32.444489,48.686225 C 32.406325,49.059344 32.380377,49.433165 32.346146,49.806514 C 32.291781,50.215768 32.206065,50.621796 32.134424,51.029237 C 32.068882,51.424695 32.006955,51.82054 31.943084,52.216178 C 31.880604,52.604491 31.806583,52.99147 31.728951,53.37796 C 31.650849,53.75592 31.571232,54.133673 31.493076,54.511626 C 31.412116,54.885249 31.343405,55.260467 31.259752,55.633705 C 31.172147,56.003363 31.083307,56.372824 30.995753,56.742488 C 30.900395,57.121445 30.802271,57.499687 30.627463,57.860376 C 30.492862,58.103821 30.563009,57.984466 30.417375,58.218578 L 25.427917,60.036498 C 25.576755,59.812612 25.50125,59.923341 25.654343,59.704273 C 25.657654,59.69884 25.844374,59.393274 25.850395,59.380106 C 25.954313,59.152795 25.983137,58.903583 26.064613,58.67125 C 26.168809,58.306249 26.241281,57.935702 26.335042,57.568861 C 26.427835,57.199016 26.498093,56.826357 26.573856,56.454061 C 26.656454,56.076717 26.731743,55.698336 26.812206,55.320691 C 26.895635,54.938556 26.970497,54.555147 27.036306,54.170771 C 27.106187,53.774782 27.166867,53.377751 27.230772,52.981112 C 27.298333,52.582596 27.3745,52.185147 27.447424,51.787264 C 27.483829,51.413252 27.512962,51.038913 27.546145,50.664704 C 27.583136,50.282747 27.62387,49.901002 27.675986,49.520172 C 27.729253,49.132955 27.785959,48.746086 27.835899,48.358569 C 27.891429,47.962484 27.931615,47.565276 27.96935,47.167848 C 28.001384,46.75328 28.037832,46.338705 28.043275,45.923174 C 28.053885,45.4811 28.053965,45.03907 28.049661,44.596918 C 28.046801,44.155932 28.036208,43.715097 28.032644,43.274128 C 28.028797,42.839964 28.024587,42.405801 28.019294,41.971647 C 28.01352,41.502731 28.00717,41.03382 27.999727,40.56492 C 27.991599,40.042374 27.978897,39.519713 27.987707,38.997136 C 27.999524,38.399109 28.030058,37.80145 28.054792,37.203705 C 28.086964,36.496201 28.121565,35.788773 28.159131,35.081442 C 28.200861,34.277872 28.239326,33.474237 28.290262,32.670997 C 28.352939,31.795988 28.421235,30.920968 28.439117,30.044391 C 28.467038,29.122278 28.485362,28.199941 28.524866,27.278085 C 28.558279,26.369003 28.602528,25.460159 28.654845,24.551664 C 28.704373,23.62293 28.7391,22.693689 28.794061,21.765112 C 28.842107,20.874804 28.894151,19.984638 28.91441,19.09352 C 28.932721,18.208064 28.949518,17.322599 28.968336,16.437149 C 28.980058,15.59838 28.997869,14.759642 29.037607,13.921392 C 29.072463,13.108124 29.100421,12.294717 29.121296,11.481144 C 29.136202,10.973747 29.160642,10.466651 29.168857,9.9591394 C 29.165879,9.7445083 29.169996,9.5295147 29.132937,9.3163439 L 34.110764,7.2650771 z" />
    <path
       style="fill:#000000;fill-opacity:1;fill-rule:nonzero;stroke:none;stroke-opacity:1"
       id="path4975"
       d="M 31.395105,9.9450845 C 31.382085,10.138879 31.367015,10.332234 31.357612,10.526962 C 31.343,10.836764 31.330823,11.146847 31.324286,11.458126 C 31.312311,11.853627 31.306903,12.250178 31.30379,12.647156 C 31.299685,13.089481 31.29619,13.531944 31.287832,13.973591 C 31.283102,14.497248 31.278616,15.020878 31.279408,15.545378 C 31.272111,16.097824 31.276434,16.652059 31.279121,17.205995 C 31.274996,17.786281 31.276419,18.367383 31.270857,18.947453 C 31.276887,19.581697 31.271047,20.213774 31.249807,20.843671 C 31.234407,21.498559 31.217017,22.153073 31.198432,22.80741 C 31.181002,23.406496 31.165435,24.005908 31.151174,24.605542 C 31.139536,25.1364 31.13122,25.667777 31.105993,26.196201 C 31.074766,26.759427 31.051558,27.324182 31.027112,27.888735 C 31.000226,28.414271 30.980974,28.94134 30.94432,29.464879 C 30.911301,29.986704 30.870478,30.50683 30.826135,31.026141 C 30.792406,31.528985 30.718336,32.020857 30.639564,32.511572 C 30.557958,32.994923 30.467686,33.475939 30.354649,33.948502 C 30.227577,34.472052 30.082358,34.988352 29.922463,35.498248 C 29.761585,35.990825 29.618424,36.491091 29.482322,36.994298 C 29.35832,37.448707 29.234178,37.903059 29.11063,38.357655 C 28.999665,38.778182 28.891573,39.199867 28.771637,39.61672 C 28.655856,40.002889 28.544514,40.390933 28.435534,40.779985 C 28.332773,41.155112 28.223255,41.52742 28.122205,41.903244 C 28.025957,42.270318 27.933131,42.638743 27.839205,43.006734 C 27.748925,43.365515 27.662625,43.72579 27.585298,44.089391 C 27.510385,44.448949 27.439201,44.809796 27.369427,45.171109 C 27.30273,45.560219 27.212899,45.940802 27.106039,46.314985 C 26.981893,46.716737 26.844833,47.112545 26.70644,47.507658 C 26.576575,47.882725 26.445871,48.257381 26.319469,48.634085 C 26.199169,49.002752 26.076505,49.370255 25.948701,49.735405 C 25.824869,50.100127 25.692761,50.46082 25.555391,50.818878 C 25.414745,51.166401 25.285074,51.519643 25.144979,51.867424 C 25.00831,52.200177 24.876177,52.535317 24.739711,52.868176 C 24.59916,53.203515 24.457397,53.538287 24.310033,53.869864 C 24.166976,54.196518 24.017133,54.519492 23.857479,54.836414 C 23.680162,55.191574 23.453624,55.514092 23.219926,55.828325 C 22.987324,56.141831 22.734294,56.438087 22.466598,56.720013 C 22.217799,56.985992 21.951501,57.234 21.672122,57.467288 C 21.413883,57.692676 21.148108,57.908799 20.866785,58.106003 C 20.589654,58.29967 20.294589,58.467595 19.988934,58.617944 C 15.978694,60.346644 17.414504,59.890377 15.868498,60.37517 L 19.335448,58.094554 C 20.718306,57.531799 19.538408,58.010602 15.840002,59.615429 C 16.156214,59.492932 16.461168,59.348748 16.743941,59.16909 C 17.03341,58.9882 17.315422,58.798649 17.571776,58.574752 C 17.844012,58.337823 18.134971,58.122139 18.387,57.862531 C 18.655104,57.58832 18.926506,57.317391 19.163404,57.013525 C 19.393494,56.716325 19.627133,56.420715 19.814717,56.090487 C 19.979263,55.781917 20.135054,55.467916 20.279067,55.146914 C 20.424981,54.816741 20.573496,54.488095 20.713227,54.154411 C 20.852133,53.823316 20.984248,53.488694 21.119982,53.155932 C 21.262714,52.809595 21.400773,52.461138 21.537542,52.111585 C 21.677748,51.758867 21.813891,51.403985 21.937757,51.043073 C 22.063421,50.677338 22.197769,50.315664 22.311966,49.94454 C 22.439912,49.566638 22.566727,49.188223 22.701311,48.813472 C 22.836336,48.419984 22.984755,48.033007 23.108911,47.634352 C 23.225937,47.280164 23.309137,46.912368 23.378959,46.53967 C 23.445865,46.175357 23.518437,45.81287 23.593011,45.451152 C 23.666093,45.080458 23.749804,44.713766 23.840827,44.349593 C 23.933168,43.979592 24.029365,43.611086 24.124419,43.242153 C 24.220962,42.86133 24.332823,42.487086 24.437362,42.109535 C 24.549208,41.719329 24.655191,41.326564 24.777115,40.940683 C 24.901577,40.525658 25.0229,40.109381 25.128661,39.686526 C 25.253298,39.229402 25.382531,38.774162 25.5112,38.318712 C 25.652631,37.809796 25.79189,37.299851 25.958597,36.801836 C 26.11985,36.303916 26.264864,35.799787 26.386869,35.285328 C 26.50105,34.821366 26.594383,34.349776 26.688328,33.878541 C 26.767249,33.396692 26.844128,32.914294 26.884635,32.421776 C 26.936876,31.907356 26.981981,31.391061 27.015507,30.872336 C 27.041071,30.346402 27.078746,29.822839 27.106922,29.2974 C 27.139218,28.737261 27.158344,28.174616 27.181926,27.612801 C 27.195827,27.08194 27.22505,26.553804 27.236788,26.022517 C 27.257455,25.419873 27.280225,24.81762 27.303891,24.215529 C 27.327782,23.5628 27.339507,22.908005 27.358036,22.254313 C 27.368481,21.627868 27.384269,21.002282 27.374763,20.37273 C 27.367482,19.794061 27.367563,19.216461 27.362813,18.638148 C 27.365039,18.08485 27.369098,17.531773 27.362406,16.977179 C 27.364049,16.454685 27.360579,15.931512 27.359004,15.408555 C 27.353373,14.967269 27.353546,14.526717 27.356339,14.086656 C 27.359338,13.691276 27.360151,13.295592 27.360051,12.899777 C 27.363265,12.589828 27.360743,12.279082 27.366824,11.96962 C 27.370066,11.786919 27.374748,11.603426 27.366479,11.419592 L 31.395105,9.9450845 z" />
    <path
       style="fill:#000000;fill-opacity:1;fill-rule:nonzero;stroke:none;stroke-opacity:1"
       id="path4977"
       d="M 34.691878,7.174168 C 34.655944,7.4711829 34.650832,7.7710634 34.636641,8.0696019 C 34.603741,8.6925109 34.571593,9.3155489 34.552869,9.939035 C 34.519701,10.786778 34.499951,11.634988 34.48065,12.483132 C 34.456057,13.537748 34.455108,14.592683 34.405521,15.646566 C 34.31404,16.857562 34.205255,18.067201 34.116972,19.278455 C 34.044969,20.323083 33.978157,21.368082 33.922703,22.413665 C 33.883518,23.265436 33.842811,24.117155 33.811554,24.96924 C 33.778466,25.763363 33.754644,26.55788 33.732531,27.352357 C 33.71771,28.062526 33.700108,28.772619 33.673971,29.482487 C 33.648537,30.083123 33.621004,30.683671 33.596108,31.284329 C 33.57445,31.808358 33.556234,32.332511 33.539438,32.856705 C 33.520824,33.385772 33.501397,33.914824 33.487705,34.444047 C 33.475958,35.013758 33.463039,35.583374 33.456704,36.153176 C 33.452235,36.693482 33.450758,37.233763 33.430414,37.773769 C 33.411225,38.305173 33.404246,38.836787 33.403731,39.368478 C 33.399554,39.849824 33.416026,40.330867 33.436525,40.811702 C 33.456689,41.258185 33.474841,41.704744 33.491195,42.151372 C 33.502354,42.569295 33.526326,42.986663 33.558874,43.403489 C 33.596346,43.823121 33.629698,44.242941 33.681909,44.661128 C 33.735248,45.086338 33.795476,45.510685 33.851474,45.935563 C 33.899138,46.3285 33.967601,46.718666 34.026162,47.110151 C 34.08281,47.490395 34.127152,47.872185 34.167396,48.254341 C 34.209136,48.628635 34.24845,49.003162 34.287553,49.377721 C 34.326271,49.750315 34.372386,50.122113 34.415333,50.494254 C 34.455534,50.862975 34.513137,51.229524 34.577057,51.594979 C 34.646281,51.954807 34.731909,52.311417 34.815925,52.668197 C 34.906146,53.011229 35.000604,53.353204 35.096442,53.694798 C 35.188223,54.045687 35.291044,54.393667 35.389287,54.742862 C 35.484561,55.098805 35.580625,55.454535 35.673321,55.811119 C 35.767446,56.170891 35.850238,56.533358 35.930393,56.896261 C 35.991204,57.244994 36.025324,57.597392 36.059729,57.949284 L 31.962051,60.019357 C 31.932,59.685115 31.902761,59.350238 31.845576,59.019098 C 31.769109,58.661438 31.687135,58.304779 31.597418,57.950023 C 31.504278,57.595931 31.410099,57.242146 31.315872,56.888325 C 31.219615,56.53896 31.111453,56.192775 31.021637,55.841724 C 30.924425,55.493946 30.825903,55.146545 30.73497,54.797139 C 30.649757,54.43242 30.560721,54.068488 30.485659,53.701615 C 30.419339,53.32801 30.354016,52.954154 30.310525,52.577235 C 30.269274,52.204233 30.221174,51.83201 30.182295,51.458761 C 30.140041,51.083529 30.107638,50.70728 30.061442,50.332435 C 30.024448,49.955585 29.983683,49.579041 29.931068,49.203896 C 29.875217,48.808595 29.807642,48.414811 29.761006,48.018373 C 29.708372,47.592462 29.648596,47.167451 29.596233,46.74151 C 29.541013,46.318564 29.488504,45.895333 29.457677,45.469908 C 29.420729,45.046144 29.394742,44.621422 29.384956,44.196202 C 29.37164,43.749146 29.35693,43.302129 29.339681,42.855196 C 29.321343,42.366768 29.301669,41.878173 29.309422,41.3893 C 29.313193,40.853443 29.321459,40.317759 29.338503,39.782123 C 29.34763,39.242387 29.371139,38.70293 29.374526,38.16305 C 29.384477,37.592816 29.388627,37.022541 29.401546,36.452366 C 29.410667,35.923793 29.416549,35.395093 29.435803,34.866754 C 29.456617,34.338509 29.479224,33.810329 29.506364,33.282349 C 29.537607,32.677757 29.57177,32.073317 29.607819,31.468975 C 29.647983,30.756787 29.677101,30.044031 29.698651,29.331089 C 29.723888,28.533502 29.75294,27.73611 29.784389,26.93872 C 29.825554,26.078702 29.862828,25.218498 29.92541,24.359599 C 29.99889,23.301914 30.090503,22.245527 30.177365,21.188817 C 30.276271,19.985542 30.380451,18.782521 30.457606,17.577709 C 30.494706,16.535073 30.486872,15.492067 30.489563,14.448927 C 30.491632,13.608877 30.495812,12.768907 30.501402,11.928881 C 30.513076,11.315525 30.516688,10.701998 30.526153,10.088629 C 30.525851,9.810256 30.520232,9.5302433 30.482128,9.2539694 L 34.691878,7.174168 z" />
    <path
       style="fill:#000000;fill-opacity:1;fill-rule:nonzero;stroke:none;stroke-opacity:1"
       id="path4979"
       d="M 37.775268,5.7196225 C 37.758544,5.9053577 37.72081,6.0904724 37.688502,6.2751557 C 37.598135,6.7262841 37.41315,7.1608539 37.27236,7.6029775 C 37.04124,8.403381 36.916631,9.2197852 36.79894,10.034818 C 36.623616,11.228968 36.502484,12.427556 36.379785,13.62573 C 36.242454,15.01092 36.149468,16.398589 36.09309,17.787319 C 36.045764,19.221913 36.021217,20.656841 36.011538,22.091882 C 36.013967,23.552031 36.019084,25.012191 36.040572,26.472258 C 36.05756,27.773272 36.112595,29.073778 36.180931,30.373637 C 36.242066,31.451033 36.310102,32.528161 36.392929,33.60463 C 36.45847,34.495122 36.543563,35.384518 36.64735,36.272651 C 36.752881,37.032991 36.846673,37.794166 36.937049,38.555742 C 37.019332,39.24617 37.087931,39.937519 37.171043,40.627877 C 37.251556,41.248945 37.336002,41.869665 37.412888,42.491033 C 37.473083,43.029693 37.550095,43.566992 37.630244,44.103941 C 37.701893,44.58611 37.779622,45.06764 37.863579,45.548529 C 37.935911,45.993229 38.018235,46.43672 38.102687,46.880023 C 38.176604,47.298898 38.285035,47.712916 38.389644,48.127331 C 38.488746,48.529791 38.610336,48.928329 38.719842,49.32899 C 38.809247,49.73158 38.945053,50.124904 39.088037,50.516916 C 39.239535,50.914065 39.385265,51.312596 39.532409,51.710788 C 39.664365,52.095071 39.831587,52.470253 40.005522,52.843347 C 40.173099,53.213716 40.374385,53.573123 40.577055,53.931762 C 40.768966,54.285323 40.992756,54.62657 41.21492,54.968274 C 41.42692,55.288703 41.653997,55.602408 41.872755,55.919879 C 42.097388,56.241274 42.326618,56.55966 42.586952,56.863435 C 42.72158,57.015094 42.86274,57.162533 43.00778,57.307827 L 38.218634,59.596226 C 38.068722,59.441291 37.92025,59.285511 37.780025,59.124789 C 37.512609,58.808491 37.264675,58.482193 37.032325,58.148592 C 36.81055,57.827728 36.585222,57.508435 36.372338,57.183698 C 36.148226,56.83409 35.923591,56.484578 35.725939,56.124653 C 35.51748,55.757225 35.310401,55.389018 35.137092,55.009774 C 34.956999,54.626875 34.782226,54.242107 34.646903,53.847197 C 34.502421,53.448317 34.357327,53.049531 34.20633,52.652203 C 34.057896,52.250907 33.900325,51.850503 33.813313,51.436973 C 33.707687,51.033082 33.585421,50.632211 33.483317,50.227733 C 33.38036,49.805591 33.26506,49.385125 33.189268,48.959051 C 33.108302,48.512656 33.021634,48.066946 32.956555,47.618799 C 32.875667,47.133406 32.797428,46.647761 32.732373,46.160805 C 32.654403,45.617879 32.582727,45.074174 32.529416,44.529311 C 32.463428,43.904055 32.391534,43.279228 32.315667,42.654691 C 32.239237,41.96132 32.156522,41.268551 32.098343,40.573962 C 32.019006,39.808096 31.922001,39.04357 31.836644,38.278128 C 31.746742,37.379568 31.671321,36.479767 31.615972,35.579453 C 31.556849,34.489982 31.518219,33.399961 31.478464,32.309947 C 31.428629,30.99906 31.380073,29.688031 31.37884,28.376408 C 31.387158,26.912529 31.377155,25.448692 31.372879,23.984817 C 31.364033,22.549313 31.379302,21.113911 31.424052,19.678789 C 31.470876,18.28693 31.564359,16.897251 31.684177,15.508209 C 31.77502,14.323021 31.859796,13.137359 31.981616,11.953886 C 32.061713,11.139565 32.154862,10.325325 32.323833,9.5192034 C 32.412512,9.1006758 32.545198,8.6899891 32.641394,8.2736761 C 32.662209,8.1119953 32.684263,7.9491506 32.705934,7.7884292 L 37.775268,5.7196225 z" />
    <path
       style="fill:#000000;fill-opacity:1;fill-rule:nonzero;stroke:#000000;stroke-width:1.00372493;stroke-opacity:1"
       id="path4981"
       d="M 25.734381,10.560586 C 39.396835,2.9835016 16.828711,15.495424 30.149992,8.1106021 C 23.397828,11.819184 25.585626,10.668977 27.028938,9.8302631 C 27.340459,10.074874 30.295408,7.7171976 31.859103,7.2824004 C 32.233647,7.1744661 32.614008,7.0873759 32.996139,7.0084319 C 33.404915,6.9223502 33.821241,6.8766154 34.235965,6.8257883 C 34.663488,6.7737921 35.092287,6.7325149 35.521399,6.6948697 C 35.981334,6.6659924 36.441275,6.6373903 36.90143,6.611946 C 37.345711,6.5780636 37.791105,6.5827242 38.236307,6.5846019 C 38.707543,6.6081855 39.178181,6.640882 39.649161,6.6686746 C 40.099285,6.6928759 40.549328,6.7207869 40.998383,6.759393 C 41.457454,6.8002739 41.909748,6.897705 42.362738,6.9789133 C 42.824929,7.0836502 43.280488,7.210038 43.734677,7.3424486 C 44.165362,7.4610833 44.577576,7.6280075 44.983816,7.8074688 C 45.365296,7.9748534 45.711628,8.2007543 46.042641,8.445777 C 46.38334,8.6934845 46.645595,9.0187296 46.904601,9.3412062 C 47.163589,9.6673641 47.39946,10.009688 47.620428,10.360493 C 47.827426,10.697906 48.004934,11.050728 48.168022,11.409344 C 48.333948,11.793995 48.446867,12.198159 48.56258,12.598882 C 48.67421,12.994873 48.776615,13.393091 48.869084,13.793595 C 48.959625,14.177501 49.039891,14.563439 49.11188,14.950922 C 49.180997,15.327452 49.234716,15.706318 49.283627,16.085685 C 49.333027,16.457737 49.366618,16.831242 49.390935,17.20549 C 49.414993,17.574644 49.429799,17.944139 49.432943,18.313986 C 49.432713,18.681838 49.404141,19.048811 49.37849,19.415604 C 49.361497,19.769725 49.298741,20.119185 49.21633,20.464062 C 49.102427,20.872121 48.89455,21.244564 48.673652,21.606751 C 48.425202,22.011634 48.137657,22.393201 47.820121,22.750304 C 47.48752,23.10609 47.12643,23.435857 46.771139,23.77038 C 46.445223,24.085146 46.092575,24.371936 45.722955,24.637815 C 45.326057,24.932918 44.907628,25.199414 44.485313,25.459341 C 42.763276,26.484639 40.993085,27.434987 39.215204,28.367708 C 38.736116,28.621161 38.253687,28.868356 37.76687,29.107781 C 37.31995,29.316663 36.873126,29.525664 36.424312,29.730675 C 35.980858,29.919515 35.55583,30.143986 35.126935,30.361088 C 33.791869,31.116814 31.960092,32.118301 38.290637,28.610983 C 38.368245,28.567986 38.135683,28.697412 38.058614,28.741288 C 37.908532,28.826733 37.759496,28.913856 37.609875,29.000042 C 37.151613,29.255149 36.724058,29.550134 36.326151,29.885039 C 36.0168,30.155421 35.717943,30.436355 35.409358,30.707549 C 35.304983,30.77575 35.159264,30.947971 35.043235,30.993053 C 34.988387,30.980157 34.792183,30.588998 34.797522,30.5616 C 34.799403,30.551945 34.815611,30.552439 34.824655,30.54786 C 34.837239,30.535437 34.846555,30.518868 34.862409,30.510592 C 34.983702,30.447281 35.268391,30.402273 35.406303,30.371532 C 35.772826,30.308955 36.125168,30.19469 36.48256,30.097715 C 36.900548,29.957231 37.329148,29.852326 37.752124,29.727077 C 38.271101,29.579038 38.772385,29.382409 39.281435,29.206234 C 39.86028,29.037359 40.435625,28.858776 41.009583,28.675369 C 41.577008,28.504592 42.144285,28.333393 42.711078,28.16069 C 43.252936,27.994842 43.804149,27.860033 44.352895,27.717453 C 44.8907,27.578691 45.433763,27.459915 45.977432,27.344577 C 46.504854,27.235 47.032474,27.121806 47.572558,27.096806 C 48.065285,27.068477 48.558198,27.078641 49.049577,27.119809 C 49.475878,27.148315 49.895871,27.218299 50.306055,27.332164 C 50.687508,27.432222 51.043199,27.596483 51.385417,27.783661 C 51.743151,27.962251 52.047226,28.213679 52.344886,28.470933 C 52.680612,28.759512 52.993937,29.070461 53.297801,29.389591 C 53.587169,29.698831 53.843267,30.034611 54.094838,30.3724 C 54.34633,30.755245 54.585982,31.145211 54.818487,31.53894 C 55.051844,31.96988 55.265558,32.409894 55.462444,32.857211 C 55.643258,33.271301 55.792062,33.697041 55.928517,34.126216 C 56.053044,34.525032 56.155435,34.929751 56.243344,35.337343 C 56.347481,35.76816 56.338139,36.207558 56.31245,36.645636 C 56.283539,37.101155 56.210333,37.552084 56.113153,37.998316 C 56.020479,38.407775 55.886605,38.806759 55.734451,39.198947 C 55.594801,39.557095 55.42255,39.901363 55.240082,40.240787 C 55.033937,40.594167 54.807091,40.935576 54.569326,41.26993 C 54.302659,41.632227 54.039602,41.997218 53.760087,42.350521 C 53.460163,42.707147 53.144879,43.051628 52.82789,43.394268 C 52.508224,43.735637 52.179036,44.068608 51.84932,44.400985 C 51.536892,44.712173 51.222716,45.021813 50.904833,45.327868 C 50.612741,45.612342 50.310863,45.887268 50.015783,46.168838 C 49.741807,46.424175 49.472431,46.684022 49.19394,46.934862 C 48.933512,47.182032 48.657979,47.413728 48.383971,47.646718 C 48.111609,47.878588 47.825733,48.095687 47.535759,48.306791 C 47.243297,48.513937 46.941936,48.710049 46.63587,48.898199 C 45.012938,49.695619 43.4997,50.867771 41.755755,51.490159 C 41.419148,51.612106 41.07356,51.700875 40.716584,51.742619 C 40.354673,51.805395 39.999185,51.749581 39.641012,51.698803 C 39.271856,51.647639 38.914243,51.543652 38.565768,51.41848 C 38.214311,51.292895 37.871052,51.147779 37.551115,50.959557 C 37.185787,50.738466 36.824906,50.510841 36.487475,50.251749 C 36.100742,49.948088 35.749845,49.604691 35.412204,49.251857 C 35.092094,48.914994 34.800198,48.555436 34.518135,48.188983 C 34.21573,47.80842 33.979755,47.385386 33.733816,46.970353 C 33.48031,46.537698 33.247948,46.094125 33.019135,45.649088 C 32.794908,45.20483 32.553295,44.769097 32.312733,44.332897 C 32.082077,43.939675 31.851686,43.54633 31.63638,43.145113 C 31.442976,42.771578 31.27255,42.387494 31.100121,42.004718 C 31.032633,41.908051 30.921301,41.59411 30.799444,41.543316 C 31.206275,43.036014 34.241787,39.785042 34.826469,39.466705 C 34.833845,39.46269 34.808927,39.46977 34.80264,39.475233 C 34.784089,39.491357 34.787811,39.518664 34.786329,39.538873 C 34.79845,39.709104 34.874933,39.865918 34.940711,40.022089 C 35.05506,40.291918 35.18214,40.5565 35.308491,40.821271 C 35.455837,41.128013 35.604341,41.434215 35.753977,41.739927 C 35.918767,42.120185 36.11331,42.486428 36.308233,42.852921 C 36.524784,43.255058 36.710174,43.671228 36.880045,44.093234 C 37.031606,44.483223 37.18244,44.87342 37.338442,45.261789 C 37.480896,45.629714 37.640186,45.991243 37.813555,46.346638 C 37.97867,46.689493 38.160684,47.02438 38.344102,47.358419 C 38.533732,47.700153 38.752007,48.025612 38.97265,48.349293 C 39.231767,48.710118 39.509837,49.057653 39.80848,49.389022 C 40.123923,49.731615 40.454535,50.060308 40.79744,50.377463 C 41.117357,50.683542 41.453344,50.973165 41.797385,51.253826 C 42.125281,51.510828 42.461878,51.756277 42.809558,51.987933 C 43.138586,52.207723 43.484009,52.403564 43.836116,52.586935 C 44.179321,52.766007 44.532445,52.926958 44.889807,53.078066 C 45.244934,53.228604 45.605038,53.367969 45.965328,53.506611 C 46.322007,53.640845 46.686422,53.753957 47.050319,53.868298 C 47.289661,53.94304 47.532896,54.005019 47.776672,54.064677 L 44.02472,56.541639 C 43.776576,56.474295 43.529261,56.404153 43.28507,56.324383 C 42.914539,56.206109 42.546486,56.080315 42.184916,55.938502 C 41.820248,55.796564 41.456872,55.651218 41.098971,55.494078 C 40.735566,55.33106 40.374909,55.161965 40.026267,54.97109 C 39.667086,54.772444 39.313454,54.564293 38.977226,54.330997 C 38.624112,54.08638 38.281687,53.827749 37.949099,53.557851 C 37.602167,53.267736 37.264063,52.968219 36.9394,52.655073 C 36.592202,52.325334 36.25701,51.984457 35.935753,51.631178 C 35.626652,51.284823 35.325086,50.931567 35.056402,50.55488 C 34.8203,50.222915 34.599519,49.880471 34.39581,49.52928 C 34.208832,49.189147 34.024998,48.847328 33.858455,48.497408 C 33.680328,48.132301 33.515281,47.76137 33.370286,47.382857 C 33.216824,46.992864 33.065773,46.60205 32.916925,46.210397 C 32.758672,45.801028 32.585768,45.39674 32.378111,45.00785 C 32.180095,44.638152 31.958802,44.279542 31.786328,43.897699 C 31.637156,43.591452 31.487437,43.28548 31.336223,42.980151 C 31.204706,42.713018 31.071032,42.446862 30.93732,42.180876 C 30.851315,41.995535 30.756288,41.810007 30.700432,41.614278 C 30.694349,41.592519 30.627102,41.3847 30.644704,41.374408 C 34.111581,39.347381 33.777017,37.911101 34.770326,39.253401 C 34.896123,39.443922 34.968268,39.660891 35.060378,39.867159 C 35.227423,40.242298 35.389886,40.619681 35.574091,40.987422 C 35.784285,41.389116 36.012722,41.78144 36.235838,42.176587 C 36.474698,42.615998 36.712811,43.055754 36.941006,43.500394 C 37.177061,43.934088 37.392231,44.378186 37.642495,44.804767 C 37.880901,45.204886 38.131957,45.598712 38.417968,45.969444 C 38.689456,46.323585 38.969812,46.671591 39.279149,46.996366 C 39.600501,47.331345 39.936949,47.654091 40.320342,47.924351 C 40.657147,48.154303 40.9965,48.382725 41.360677,48.571592 C 41.67929,48.719657 42.00325,48.857375 42.340566,48.961937 C 42.672723,49.060097 43.010769,49.139442 43.35815,49.167445 C 43.694261,49.195222 44.02829,49.17506 44.357935,49.101818 C 44.692872,49.019706 45.020415,48.912621 45.337688,48.780349 C 46.875419,48.121621 48.99183,46.561489 42.382078,50.471677 C 42.699998,50.305658 42.997518,50.110972 43.299534,49.920022 C 43.59392,49.719837 43.879806,49.509806 44.162058,49.294138 C 44.438774,49.066381 44.711973,48.835013 44.983212,48.601261 C 45.256319,48.342528 45.545869,48.099899 45.810999,47.833163 C 46.116493,47.559205 46.408287,47.271565 46.71309,46.996799 C 47.032124,46.688736 47.354227,46.383613 47.669213,46.071734 C 48.002856,45.746697 48.330847,45.416299 48.651011,45.079036 C 48.973586,44.745216 49.285084,44.402283 49.596888,44.059206 C 49.888976,43.727067 50.146302,43.369212 50.404439,43.012393 C 50.640233,42.689146 50.879771,42.367974 51.083907,42.024829 C 51.284868,41.706785 51.461522,41.373749 51.609645,41.029919 C 51.778449,40.659547 51.919717,40.279179 52.028737,39.888376 C 52.138088,39.462046 52.230094,39.030828 52.265309,38.592179 C 52.301363,38.193015 52.314173,37.78939 52.236317,37.393644 C 52.160202,36.996925 52.062824,36.604216 51.948792,36.215958 C 51.822679,35.798715 51.684879,35.384518 51.515491,34.981346 C 51.331363,34.547765 51.133187,34.119162 50.893091,33.711019 C 50.670985,33.329776 50.442676,32.950623 50.183604,32.59124 C 49.942425,32.268174 49.697346,31.946625 49.419854,31.65106 C 49.126089,31.345345 48.823753,31.046391 48.492176,30.77796 C 48.20424,30.551757 47.906119,30.338392 47.572163,30.177599 C 47.249246,30.019806 46.913742,29.889062 46.559296,29.811692 C 46.165895,29.727819 45.766032,29.678005 45.363688,29.655126 C 44.890279,29.631772 44.415458,29.632618 43.943394,29.679605 C 43.422342,29.74991 42.90704,29.851811 42.394223,29.964549 C 41.854452,30.084527 41.316471,30.212016 40.781634,30.350995 C 40.235223,30.492106 39.691495,30.642265 39.15236,30.807397 C 38.586011,30.976805 38.019288,31.14536 37.456453,31.325309 C 36.882313,31.504971 36.301712,31.666478 35.735395,31.868481 C 35.219506,32.051926 34.703921,32.23642 34.174705,32.382207 C 33.744484,32.505664 33.318706,32.642082 32.886404,32.75879 C 32.517611,32.862521 32.145833,32.953452 31.773924,33.046109 C 31.604293,33.093658 31.36594,33.19282 31.193675,33.206881 C 31.163537,33.209341 31.133336,33.202754 31.103165,33.200692 C 30.93853,33.179521 30.717699,32.819452 30.750889,32.667406 C 30.806381,32.594025 30.749114,32.658768 30.830906,32.599942 C 30.943953,32.518636 31.046285,32.421715 31.170302,32.35396 C 31.51524,32.095746 31.843267,31.816804 32.153266,31.520439 C 32.354853,31.342239 32.549497,31.147005 32.763711,30.982786 C 32.964,30.829244 33.190534,30.706352 33.399398,30.564484 C 35.116205,29.536727 36.87507,28.572289 38.65104,27.642339 C 39.084198,27.425567 39.520838,27.216205 39.964236,27.01932 C 40.406663,26.813419 40.852312,26.61362 41.287858,26.394342 C 41.76844,26.153031 42.244537,25.903594 42.71964,25.652486 C 42.965523,25.521179 43.212672,25.392054 43.457891,25.259603 C 43.537724,25.216481 43.776089,25.085209 43.696888,25.12939 C 39.917236,27.237774 38.876774,27.868534 40.271891,27.027236 C 40.69729,26.783456 41.114559,26.526165 41.515703,26.246769 C 41.879112,25.980858 42.257783,25.732609 42.588158,25.42721 C 42.946551,25.098306 43.301052,24.765411 43.654147,24.431287 C 43.721045,24.364521 43.92574,24.162795 43.988932,24.089718 C 44.185583,23.862306 44.353464,23.611156 44.530897,23.37017 C 44.742598,23.041111 44.956391,22.713133 45.098493,22.348954 C 45.204044,22.032543 45.272259,21.705984 45.308039,21.375385 C 45.332856,21.016565 45.364126,20.65807 45.37595,20.298554 C 45.381321,19.936467 45.369543,19.574694 45.347503,19.213196 C 45.327148,18.846741 45.302459,18.480628 45.254773,18.116324 C 45.209912,17.743431 45.160615,17.37096 45.096661,17.000578 C 45.02964,16.617717 44.955208,16.236084 44.866049,15.857342 C 44.779743,15.462798 44.682522,15.070768 44.575506,14.680915 C 44.468948,14.29914 44.359698,13.916233 44.201616,13.550619 C 44.050109,13.208353 43.883151,12.872342 43.68897,12.550271 C 43.479227,12.213339 43.253321,11.885454 43.003962,11.574186 C 42.765092,11.28201 42.513704,11.000066 42.196677,10.782323 C 41.884911,10.56336 41.557989,10.365558 41.201306,10.220108 C 40.807813,10.054409 40.405294,9.9106104 39.991935,9.7969731 C 39.549772,9.6691051 39.103117,9.5529514 38.648776,9.4720794 C 38.204212,9.3924747 37.758619,9.3149464 37.30611,9.2921898 C 36.86032,9.2597738 36.414382,9.2297993 35.968123,9.2039183 C 35.500771,9.1744217 35.032853,9.1402032 34.564141,9.1473262 C 34.125974,9.1484676 33.688355,9.1622374 33.251159,9.1915668 C 32.791216,9.2182885 32.330978,9.2450277 31.872795,9.2929695 C 31.44847,9.3336407 31.024448,9.3778885 30.602163,9.4352416 C 30.190541,9.4927316 29.780597,9.5595956 29.376935,9.6574389 C 29.00285,9.7465255 28.628756,9.841324 28.271063,9.9810358 C 26.74325,10.664949 24.622408,12.024371 31.291831,8.2546433 C 29.715477,9.1179305 28.251478,10.17152 26.583151,10.882252 C 39.359806,3.7942392 17.257405,16.056276 30.143105,8.9057846 C 30.170016,8.8908519 30.049515,8.9553064 30.06103,8.9482638 L 25.734381,10.560586 z" />
  </g>
</svg>
